<?xml version="1.0" encoding="UTF-8"?>
<svg id="_レイヤー_1" data-name="レイヤー 1" xmlns="http://www.w3.org/2000/svg" viewBox="0 0 414.9 149.17">
  <defs>
    <style>
      .cls-1 {
        fill: #e8465a;
      }

      .cls-1, .cls-2 {
        stroke-width: 0px;
      }

      .cls-2 {
        fill: #404040;
      }
    </style>
  </defs>
  <g>
    <polygon class="cls-1" points="349.04 30.91 353 16.48 336.71 0 320.5 59.13 379.81 43.6 363.52 27.12 349.04 30.91"/>
    <polygon class="cls-1" points="291.41 54.53 278.9 46.3 258.2 56.7 309.42 90.39 312.99 29.19 292.28 39.58 291.41 54.53"/>
    <polygon class="cls-1" points="389.31 78.43 404.26 77.73 414.9 57.15 353.66 60 386.75 111.62 397.39 91.03 389.31 78.43"/>
    <polygon class="cls-2" points="296.06 116.64 284.37 125.99 287.86 148.9 335.73 110.59 278.62 88.29 282.11 111.19 296.06 116.64"/>
    <polygon class="cls-2" points="356.56 131.41 361.85 145.42 384.71 149.17 363.07 91.81 324.21 139.23 347.08 142.99 356.56 131.41"/>
  </g>
  <g>
    <g>
      <polygon class="cls-2" points="18.62 35.81 18.48 59.91 14.39 59.88 5.09 44.92 5 59.83 .36 59.8 .49 35.71 4.55 35.73 13.89 50.91 13.97 35.79 18.62 35.81"/>
      <polygon class="cls-2" points="38.42 35.93 38.4 40.08 28.27 40.02 28.24 45.44 37.32 45.49 37.29 49.61 28.22 49.56 28.18 55.84 38.31 55.9 38.28 60.02 23.27 59.94 23.41 35.84 38.42 35.93"/>
      <path class="cls-2" d="M54.41,43.49c-.44-2.27-1.76-3.68-4.13-3.69-2.83-.02-4.34,1.9-4.37,6.51l-.02,3.42c-.03,4.47,1.46,6.54,4.29,6.56,2.44.01,3.64-1.2,4.18-3.64l4.64.03c-.83,5.41-3.89,7.77-8.85,7.74-5.41-.03-9.2-3.34-9.16-10.7l.02-3.42c.04-7.44,3.87-10.63,9.28-10.6,4.78.03,8.02,2.56,8.79,7.84l-4.68-.03Z"/>
      <polygon class="cls-2" points="79.28 36.16 79.25 40.32 72.62 40.28 72.5 60.22 67.61 60.19 67.73 40.25 61.09 40.21 61.12 36.06 79.28 36.16"/>
      <path class="cls-2" d="M79.28,60.26l8.52-24.05,4.68.03,8.24,24.14-5.2-.03-1.44-4.58-8.07-.05-1.49,4.57-5.24-.03ZM87.32,51.61l5.45.03-2.67-8.5-2.77,8.47Z"/>
      <path class="cls-2" d="M116.12,60.47l-4.28-9.49-3.91-.02-.05,9.46-4.89-.03.14-24.1,8.63.05c5.55.03,9,2.53,8.97,7.42-.02,3.25-1.53,5.37-4.16,6.44l4.93,10.3-5.38-.03ZM111.24,46.86c2.9.02,4.58-.6,4.59-3.12s-1.66-3.22-4.56-3.24l-3.28-.02-.04,6.36,3.28.02Z"/>
      <rect class="cls-2" x="115.35" y="46.05" width="24.1" height="4.89" transform="translate(78.17 175.61) rotate(-89.67)"/>
      <polygon class="cls-2" points="151.08 36.58 151.06 40.74 144.42 40.7 144.3 60.64 139.42 60.61 139.53 40.67 132.9 40.63 132.92 36.47 151.08 36.58"/>
      <rect class="cls-2" x="144.41" y="46.21" width="24.1" height="4.89" transform="translate(106.89 204.83) rotate(-89.67)"/>
      <path class="cls-2" d="M172.42,61.11c-5.41-.03-9.2-3.34-9.16-10.7l.02-3.42c.04-7.44,3.87-10.63,9.28-10.6s9.24,3.27,9.19,10.7l-.02,3.42c-.04,7.37-3.87,10.63-9.32,10.6ZM168.15,50.44c-.03,4.61,1.46,6.54,4.29,6.56s4.38-1.9,4.4-6.51l.02-3.42c.03-4.61-1.5-6.54-4.33-6.56s-4.34,1.9-4.37,6.51l-.02,3.42Z"/>
      <polygon class="cls-2" points="203.95 36.89 203.82 60.98 199.73 60.96 190.42 45.99 190.33 60.9 185.69 60.88 185.83 36.78 189.88 36.8 199.22 51.98 199.31 36.86 203.95 36.89"/>
    </g>
    <g>
      <g>
        <path class="cls-1" d="M31.54,85.28c-.98-1.25-2.31-2.18-3.99-2.78-1.68-.6-3.27-.91-4.78-.92-.88,0-1.79.09-2.72.29-.93.2-1.82.52-2.65.96-.83.44-1.51,1.02-2.03,1.74-.52.72-.79,1.6-.79,2.64,0,1.66.6,2.93,1.84,3.82,1.24.89,2.8,1.65,4.69,2.28,1.89.63,3.92,1.27,6.09,1.9s4.2,1.53,6.09,2.68c1.88,1.15,3.44,2.69,4.68,4.61,1.23,1.93,1.84,4.49,1.82,7.71s-.6,5.72-1.76,8c-1.15,2.27-2.71,4.16-4.66,5.65-1.95,1.49-4.21,2.59-6.78,3.3-2.57.71-5.28,1.06-8.13,1.04-3.58-.02-6.89-.58-9.94-1.69-3.05-1.11-5.89-2.88-8.52-5.34l8.68-9.44c1.23,1.67,2.79,2.96,4.68,3.88,1.89.92,3.84,1.38,5.86,1.39.98,0,1.98-.1,2.99-.33,1.01-.23,1.92-.57,2.73-1.03.81-.46,1.46-1.05,1.95-1.78.5-.72.75-1.58.75-2.56,0-1.66-.62-2.97-1.88-3.94-1.26-.97-2.85-1.79-4.77-2.48-1.91-.68-3.98-1.37-6.21-2.06-2.23-.69-4.29-1.61-6.2-2.76-1.91-1.15-3.5-2.66-4.76-4.54-1.26-1.87-1.88-4.34-1.86-7.4.02-2.95.62-5.54,1.79-7.77,1.18-2.22,2.75-4.08,4.7-5.57,1.95-1.49,4.2-2.61,6.74-3.34,2.54-.74,5.16-1.1,7.86-1.08,3.11.02,6.11.48,9.01,1.37,2.9.9,5.51,2.39,7.83,4.48l-8.37,9.05Z"/>
        <path class="cls-1" d="M70.98,122.36h-.15c-1.31,2.01-3.04,3.46-5.2,4.32-2.16.87-4.43,1.3-6.81,1.28-1.76-.01-3.46-.27-5.09-.77-1.63-.5-3.06-1.25-4.3-2.24-1.24-.99-2.22-2.22-2.93-3.67-.72-1.45-1.07-3.14-1.06-5.06.01-2.18.42-4.01,1.24-5.51.81-1.5,1.91-2.74,3.29-3.71,1.38-.98,2.95-1.73,4.72-2.27,1.76-.53,3.59-.92,5.49-1.17,1.89-.25,3.79-.39,5.68-.43,1.89-.04,3.64-.06,5.25-.05.01-2.07-.72-3.72-2.19-4.95-1.47-1.23-3.22-1.85-5.24-1.86s-3.67.38-5.26,1.17c-1.59.8-3,1.89-4.26,3.28l-6.18-6.41c2.19-2.01,4.74-3.51,7.65-4.5,2.91-.99,5.92-1.48,9.03-1.46,3.42.02,6.23.46,8.43,1.33,2.2.87,3.95,2.14,5.27,3.8,1.31,1.67,2.22,3.71,2.72,6.12.5,2.41.75,5.2.73,8.36l-.11,19.2-10.73-.06.03-4.74ZM68.17,110.52c-.88,0-1.98.03-3.3.1s-2.59.28-3.81.64c-1.22.36-2.26.89-3.12,1.61-.86.72-1.29,1.73-1.3,3.02,0,1.4.58,2.44,1.77,3.12,1.19.68,2.43,1.03,3.73,1.03,1.14,0,2.24-.14,3.31-.45,1.06-.3,2.01-.74,2.85-1.31.83-.56,1.5-1.29,2-2.17.5-.88.75-1.91.76-3.11v-2.49s-2.86-.02-2.86-.02Z"/>
        <path class="cls-1" d="M89.33,68.43l11.66.07-.21,35.92,12.99-14.85,14.3.08-15.1,16.94,15.27,20.85-14.69-.09-12.64-19.2h-.16s-.11,19.12-.11,19.12l-11.66-.07.34-58.78Z"/>
        <path class="cls-1" d="M168.6,127.67l-11.2-.06.03-5.13h-.16c-.42.72-.95,1.45-1.61,2.17-.65.72-1.45,1.37-2.38,1.93-.94.57-2,1.03-3.19,1.38-1.2.36-2.49.53-3.89.52-2.95-.02-5.35-.49-7.18-1.4s-3.25-2.18-4.25-3.8c-1-1.61-1.66-3.51-1.99-5.69-.33-2.18-.48-4.54-.46-7.08l.12-20.84,11.66.07-.11,18.5c0,1.09.03,2.22.1,3.38.07,1.17.3,2.24.68,3.23.38.99.97,1.79,1.77,2.42.8.63,1.95.94,3.45.95s2.72-.26,3.66-.8c.94-.54,1.65-1.26,2.15-2.16.5-.9.83-1.93.99-3.06.16-1.14.25-2.33.25-3.57l.11-18.82,11.66.07-.22,37.79Z"/>
        <path class="cls-1" d="M177.06,89.93l11.66.07-.04,6.06h.16c1.26-2.32,2.74-4.07,4.46-5.22,1.72-1.16,3.87-1.73,6.46-1.71.67,0,1.35.03,2.02.09.67.06,1.29.16,1.86.32l-.06,10.65c-.83-.26-1.64-.46-2.45-.6-.8-.13-1.64-.2-2.53-.21-2.23-.01-3.99.29-5.29.9-1.3.62-2.3,1.48-3.01,2.59-.71,1.11-1.17,2.44-1.38,4-.22,1.55-.33,3.26-.34,5.13l-.09,15.78-11.66-.07.22-37.79Z"/>
        <path class="cls-1" d="M232.22,123.29h-.15c-1.31,2.01-3.04,3.46-5.2,4.32-2.16.87-4.43,1.3-6.81,1.28-1.76-.01-3.46-.27-5.09-.77-1.63-.5-3.06-1.25-4.3-2.24-1.24-.99-2.22-2.22-2.93-3.67-.72-1.45-1.07-3.14-1.06-5.06.01-2.18.42-4.01,1.24-5.51.81-1.5,1.91-2.74,3.29-3.71,1.38-.98,2.95-1.73,4.72-2.27,1.76-.53,3.59-.92,5.49-1.17,1.89-.25,3.79-.39,5.68-.43,1.89-.04,3.64-.06,5.25-.05.01-2.07-.72-3.72-2.19-4.95-1.47-1.23-3.22-1.85-5.24-1.86s-3.67.38-5.26,1.17c-1.59.8-3,1.89-4.26,3.28l-6.18-6.41c2.19-2.01,4.74-3.51,7.65-4.5,2.91-.99,5.92-1.48,9.03-1.46,3.42.02,6.23.46,8.43,1.33,2.2.87,3.95,2.14,5.27,3.8,1.31,1.67,2.22,3.71,2.72,6.12.5,2.41.75,5.2.73,8.36l-.11,19.2-10.73-.06.03-4.74ZM229.41,111.46c-.88,0-1.98.03-3.3.1s-2.59.28-3.81.64c-1.22.36-2.26.89-3.12,1.61-.86.72-1.29,1.73-1.3,3.02,0,1.4.58,2.44,1.77,3.12,1.19.68,2.43,1.03,3.73,1.03,1.14,0,2.24-.14,3.31-.45,1.06-.3,2.01-.74,2.85-1.31.83-.56,1.5-1.29,2-2.17.5-.88.75-1.91.76-3.11v-2.49s-2.86-.02-2.86-.02Z"/>
      </g>
      <g>
        <path class="cls-2" d="M45.33,134.13h1.97s1.86,7.3,1.86,7.3h.03s2.31-7.27,2.31-7.27h1.77s2.18,7.3,2.18,7.3h.03s2.03-7.27,2.03-7.27h1.83s-3,10.1-3,10.1h-1.71s-2.3-7.72-2.3-7.72h-.03s-2.39,7.68-2.39,7.68h-1.66s-2.93-10.13-2.93-10.13Z"/>
        <path class="cls-2" d="M61.63,141.5c.05.51.25.91.59,1.2s.75.43,1.24.44c.43,0,.79-.08,1.08-.26.29-.17.55-.39.77-.66l1.22.94c-.4.49-.85.84-1.35,1.05s-1.01.31-1.56.3c-.51,0-1-.09-1.46-.27-.46-.17-.85-.42-1.18-.73-.33-.32-.59-.7-.79-1.14s-.29-.94-.28-1.48.1-1.03.3-1.48.46-.82.8-1.13c.34-.31.73-.55,1.19-.72.46-.17.94-.25,1.46-.25.48,0,.91.09,1.3.26.39.17.73.41,1.01.73.28.32.5.7.65,1.17.15.46.23.99.23,1.59v.47s-5.23-.03-5.23-.03ZM65.15,140.24c0-.5-.16-.9-.46-1.19s-.72-.44-1.27-.44c-.51,0-.92.14-1.22.44s-.49.69-.56,1.18l3.51.02Z"/>
        <path class="cls-2" d="M68.5,133.58h1.71s-.03,4.82-.03,4.82h.04c.09-.11.2-.23.33-.35.13-.12.3-.23.49-.33.19-.1.41-.19.66-.25.25-.06.53-.1.86-.09.48,0,.93.1,1.34.29.41.19.76.44,1.04.77.29.33.51.71.67,1.15.16.44.24.91.23,1.42s-.08.98-.24,1.41c-.15.44-.38.82-.68,1.14-.3.32-.66.57-1.07.76-.42.18-.89.27-1.42.27-.49,0-.94-.1-1.35-.29-.42-.19-.75-.5-.99-.92h-.03s0,1.03,0,1.03h-1.63s.06-10.8.06-10.8ZM74.14,140.98c0-.27-.04-.52-.13-.77s-.22-.47-.4-.66-.39-.34-.63-.46-.53-.18-.84-.18-.6.05-.84.17-.46.26-.64.45c-.18.19-.31.41-.4.65-.09.25-.14.5-.14.77s.04.52.13.77c.09.25.22.47.4.66.17.19.38.34.63.46s.53.17.84.18.6-.05.84-.17.46-.26.64-.45.31-.41.4-.66c.09-.25.14-.5.14-.77Z"/>
        <path class="cls-2" d="M81.12,139.49c-.33-.47-.78-.7-1.34-.71-.23,0-.45.05-.67.17-.22.11-.33.3-.33.56,0,.21.09.36.27.46.18.1.41.18.68.25.27.07.57.14.89.21.32.07.61.18.89.33.27.15.5.35.68.61.18.26.27.61.27,1.06,0,.41-.09.75-.27,1.03-.18.28-.41.5-.69.67-.28.17-.6.29-.95.37-.35.07-.71.11-1.06.11-.53,0-1.02-.08-1.47-.24-.45-.15-.85-.43-1.2-.84l1.15-1.06c.22.25.45.45.7.61s.56.24.92.24c.12,0,.25-.01.39-.04.13-.03.26-.08.37-.14.11-.07.21-.15.28-.25.07-.1.11-.22.11-.35,0-.24-.09-.42-.27-.53-.18-.11-.41-.21-.68-.28-.28-.07-.57-.14-.89-.21-.32-.06-.61-.17-.89-.3-.28-.14-.5-.33-.68-.58-.18-.25-.27-.59-.26-1.03,0-.38.08-.71.24-.99.16-.28.37-.51.62-.69s.55-.31.89-.39.67-.13,1.01-.12c.46,0,.91.08,1.36.24s.81.43,1.08.81l-1.15,1.02Z"/>
        <path class="cls-2" d="M83.61,135.28c0-.28.11-.52.31-.72.21-.2.47-.3.78-.3s.58.1.79.3.32.44.32.74-.11.54-.32.73-.48.29-.79.29-.57-.11-.78-.31c-.2-.21-.3-.45-.3-.72ZM83.84,137.61h1.71s-.04,6.86-.04,6.86h-1.71s.04-6.86.04-6.86Z"/>
        <path class="cls-2" d="M86.72,139.08v-1.46s1.42,0,1.42,0v-1.98s1.72,0,1.72,0v1.98s1.87.01,1.87.01v1.46s-1.89-.01-1.89-.01l-.02,3c0,.34.06.61.19.81.13.2.38.3.76.3.15,0,.32-.01.5-.05.18-.03.32-.09.43-.16v1.44c-.19.08-.41.14-.67.17-.26.03-.49.05-.69.05-.46,0-.83-.05-1.12-.16s-.52-.26-.68-.46c-.17-.21-.28-.46-.34-.77-.06-.3-.09-.66-.09-1.06l.02-3.14h-1.41Z"/>
        <path class="cls-2" d="M94.43,141.69c.05.51.25.91.59,1.2s.75.43,1.24.44c.43,0,.79-.08,1.08-.26.29-.17.55-.39.77-.66l1.22.94c-.4.49-.85.84-1.35,1.05s-1.01.31-1.56.3c-.51,0-1-.09-1.46-.27-.46-.17-.85-.42-1.18-.73-.33-.32-.59-.7-.79-1.14s-.29-.94-.28-1.48.1-1.03.3-1.48.46-.82.8-1.13c.34-.31.73-.55,1.19-.72.46-.17.94-.25,1.46-.25.48,0,.91.09,1.3.26.39.17.73.41,1.01.73.28.32.5.7.65,1.17.15.46.23.99.23,1.59v.47s-5.23-.03-5.23-.03ZM97.95,140.43c0-.5-.16-.9-.46-1.19s-.72-.44-1.27-.44c-.51,0-.92.14-1.22.44s-.49.69-.56,1.18l3.51.02Z"/>
        <path class="cls-2" d="M107.73,136.12l-3.1-.02v-1.63s8,.05,8,.05v1.63s-3.11-.02-3.11-.02l-.05,8.48h-1.8s.05-8.49.05-8.49Z"/>
        <path class="cls-2" d="M115.04,141.81c.05.51.25.91.59,1.2s.75.43,1.24.44c.43,0,.79-.08,1.08-.26.29-.17.55-.39.77-.66l1.22.94c-.4.49-.85.84-1.35,1.05s-1.01.31-1.56.3c-.51,0-1-.09-1.46-.27-.46-.17-.85-.42-1.18-.73-.33-.32-.59-.7-.79-1.14s-.29-.94-.28-1.48.1-1.03.3-1.48.46-.82.8-1.13c.34-.31.73-.55,1.19-.72.46-.17.94-.25,1.46-.25.48,0,.91.09,1.3.26.39.17.73.41,1.01.73.28.32.5.7.65,1.17.15.46.23.99.23,1.59v.47s-5.23-.03-5.23-.03ZM118.56,140.55c0-.5-.16-.9-.46-1.19s-.72-.44-1.27-.44c-.51,0-.92.14-1.22.44s-.49.69-.56,1.18l3.51.02Z"/>
        <path class="cls-2" d="M121.82,137.83h1.63s0,1.08,0,1.08h.03c.15-.32.4-.61.74-.86s.79-.37,1.37-.37c1.07,0,1.79.43,2.13,1.28.25-.44.56-.76.93-.96.37-.2.82-.3,1.33-.3.46,0,.84.08,1.16.24.31.15.57.36.76.63.19.27.33.58.42.94.08.36.12.74.12,1.15l-.02,4.08h-1.71s.02-3.89.02-3.89c0-.21-.02-.41-.05-.61-.04-.19-.1-.37-.2-.51s-.22-.27-.38-.35c-.16-.09-.37-.13-.63-.13s-.49.05-.68.15c-.19.1-.34.23-.46.4-.12.17-.21.36-.26.57s-.08.43-.08.65l-.02,3.71h-1.71s.02-4.09.02-4.09c0-.43-.09-.77-.27-1.02-.18-.25-.48-.38-.9-.38-.29,0-.53.04-.72.14-.2.09-.36.22-.49.38-.13.16-.22.35-.28.55-.06.21-.09.43-.09.66l-.02,3.74h-1.71s.04-6.86.04-6.86Z"/>
        <path class="cls-2" d="M134.31,137.9h1.63s0,1.04,0,1.04h.03c.25-.42.59-.72,1-.91.42-.19.87-.28,1.36-.28.52,0,.99.1,1.41.29.42.19.77.44,1.07.77.29.33.51.71.66,1.15.15.44.22.91.22,1.42s-.09.98-.25,1.41c-.16.44-.39.82-.69,1.14-.29.32-.64.57-1.05.76s-.86.27-1.34.27c-.32,0-.61-.04-.86-.1-.25-.07-.47-.15-.65-.26-.19-.11-.35-.22-.48-.34-.13-.12-.24-.24-.33-.35h-.04s-.02,4.13-.02,4.13h-1.71s.06-10.12.06-10.12ZM139.97,141.36c0-.27-.04-.52-.13-.77-.09-.25-.22-.47-.4-.66-.18-.19-.39-.34-.63-.46s-.53-.18-.84-.18-.6.05-.84.17-.46.26-.64.45-.31.41-.4.65-.14.5-.14.77.04.52.13.77c.09.25.22.47.4.66s.39.34.63.46.53.17.84.18.6-.05.84-.17.46-.26.64-.45c.18-.19.31-.41.4-.66.09-.25.14-.5.14-.77Z"/>
        <path class="cls-2" d="M143.35,134.01h1.71s-.06,10.8-.06,10.8h-1.71s.06-10.8.06-10.8Z"/>
        <path class="cls-2" d="M151.26,143.91h-.04c-.25.39-.57.67-.95.84-.38.17-.8.26-1.26.26-.31,0-.62-.05-.92-.13s-.57-.22-.8-.39c-.23-.17-.42-.39-.56-.65-.14-.26-.21-.56-.21-.9,0-.37.07-.69.21-.95s.31-.48.54-.65c.22-.18.49-.31.78-.42.29-.1.6-.18.92-.23.32-.05.64-.08.96-.09.32-.01.63-.02.91-.02h.43s0-.18,0-.18c0-.43-.14-.75-.44-.97-.29-.22-.67-.33-1.13-.33-.36,0-.7.06-1.01.19-.32.13-.59.3-.82.52l-.89-.91c.38-.39.83-.67,1.34-.83.51-.17,1.04-.25,1.58-.25.49,0,.89.06,1.23.17.33.11.61.25.82.43.22.17.39.37.5.6.12.22.2.45.25.68.05.23.08.45.09.66,0,.21.01.4.01.56l-.02,3.94h-1.54s0-.95,0-.95ZM151.18,141.78h-.36c-.24,0-.51,0-.8.02-.3.02-.57.06-.83.13-.26.07-.48.17-.67.31s-.27.33-.27.58c0,.16.03.3.1.41.07.11.16.2.28.28.11.08.24.13.38.17.14.03.29.05.43.05.59,0,1.03-.13,1.31-.41.28-.28.43-.66.43-1.15v-.39Z"/>
        <path class="cls-2" d="M153.87,139.47v-1.46s1.42,0,1.42,0v-1.98s1.73,0,1.73,0v1.98s1.87.01,1.87.01v1.46s-1.89-.01-1.89-.01l-.02,3c0,.34.06.61.19.81.13.2.38.3.76.3.15,0,.32-.01.5-.05s.32-.09.43-.16v1.44c-.19.08-.41.14-.67.17-.26.03-.49.05-.69.05-.46,0-.83-.05-1.12-.16s-.52-.26-.68-.46-.28-.46-.34-.77-.09-.66-.09-1.06l.02-3.14h-1.41Z"/>
        <path class="cls-2" d="M161.58,142.08c.06.51.25.91.59,1.2.34.29.75.43,1.24.44.43,0,.79-.08,1.08-.26.29-.17.55-.39.77-.66l1.22.94c-.4.49-.85.84-1.35,1.05s-1.01.31-1.56.3c-.51,0-1-.09-1.45-.27-.46-.17-.85-.42-1.18-.73-.33-.32-.59-.7-.79-1.14s-.29-.94-.28-1.48.1-1.03.3-1.48.46-.82.8-1.13c.33-.31.73-.55,1.19-.72.46-.17.94-.25,1.46-.25.48,0,.91.09,1.3.26.39.17.73.41,1.01.73.28.32.5.7.65,1.17.15.46.23.99.23,1.59v.47s-5.23-.03-5.23-.03ZM165.1,140.82c0-.5-.16-.9-.46-1.19s-.73-.44-1.27-.44c-.51,0-.92.14-1.22.44s-.49.69-.56,1.18l3.51.02Z"/>
        <path class="cls-2" d="M173.26,139.58h-1.41s0-1.46,0-1.46h1.41s0-.96,0-.96c0-.48.04-.91.11-1.29s.2-.71.38-.99c.19-.27.45-.49.78-.63.33-.15.77-.22,1.3-.21.39,0,.75.04,1.08.11l-.12,1.46c-.12-.03-.24-.05-.36-.07-.11-.02-.23-.03-.36-.03-.24,0-.43.04-.57.11-.14.08-.26.18-.34.31-.08.13-.14.28-.16.45-.02.17-.04.35-.04.54v1.24s1.58,0,1.58,0v1.46s-1.59,0-1.59,0l-.03,5.4h-1.71s.03-5.41.03-5.41Z"/>
        <path class="cls-2" d="M177.32,141.57c0-.54.1-1.03.3-1.48s.46-.82.8-1.13c.33-.31.73-.55,1.19-.72.46-.17.94-.25,1.46-.25s1,.09,1.45.27c.46.17.85.42,1.18.74.33.32.59.7.79,1.14s.29.94.28,1.48-.1,1.03-.3,1.48-.46.82-.8,1.13c-.33.31-.73.55-1.19.72-.46.17-.94.25-1.46.25s-1-.09-1.45-.27c-.46-.17-.85-.42-1.18-.73-.33-.32-.59-.7-.79-1.14s-.29-.94-.28-1.48ZM179.03,141.58c0,.27.04.52.13.77.09.25.22.47.4.66.18.19.39.34.63.46s.53.17.84.18.6-.05.84-.17.46-.26.64-.45c.18-.19.31-.41.4-.66.09-.25.14-.5.14-.77s-.04-.52-.13-.77-.22-.47-.4-.66c-.18-.19-.39-.34-.63-.46s-.53-.18-.84-.18-.6.05-.84.17-.46.26-.64.45c-.18.19-.31.41-.4.65s-.14.5-.14.77Z"/>
        <path class="cls-2" d="M186.39,138.2h1.71s0,1.1,0,1.1h.03c.19-.4.47-.71.82-.92s.76-.32,1.21-.32c.1,0,.21.01.31.03s.2.04.31.07v1.66c-.15-.04-.29-.07-.43-.1s-.27-.04-.41-.04c-.4,0-.72.07-.96.22s-.43.31-.56.5c-.13.19-.22.38-.26.57-.04.19-.07.33-.07.43l-.02,3.67h-1.71s.04-6.86.04-6.86Z"/>
        <path class="cls-2" d="M196.34,135l6.7.04v1.63s-4.91-.03-4.91-.03v2.48s4.62.03,4.62.03v1.63s-4.65-.03-4.65-.03l-.02,2.74,5.15.03v1.63s-6.96-.04-6.96-.04l.06-10.11Z"/>
        <path class="cls-2" d="M203.96,138.3h1.87s1.8,4.82,1.8,4.82h.03s1.87-4.79,1.87-4.79h1.76s-2.74,6.85-2.74,6.85h-1.83s-2.76-6.88-2.76-6.88Z"/>
        <path class="cls-2" d="M213.65,142.38c.06.51.25.91.59,1.2.34.29.75.43,1.24.44.43,0,.79-.08,1.08-.26.29-.17.55-.39.77-.66l1.22.94c-.4.49-.85.84-1.35,1.05s-1.01.31-1.56.3c-.51,0-1-.09-1.45-.27-.46-.17-.85-.42-1.18-.73-.33-.32-.59-.7-.79-1.14s-.29-.94-.28-1.48.1-1.03.3-1.48.46-.82.8-1.13c.33-.31.73-.55,1.19-.72.46-.17.94-.25,1.46-.25.48,0,.91.09,1.3.26.39.17.73.41,1.01.73.28.32.5.7.65,1.17.15.46.23.99.23,1.59v.47s-5.23-.03-5.23-.03ZM217.17,141.12c0-.5-.16-.9-.46-1.19s-.73-.44-1.27-.44c-.51,0-.92.14-1.22.44s-.49.69-.56,1.18l3.51.02Z"/>
        <path class="cls-2" d="M220.49,138.4h1.63s0,1.11,0,1.11h.03c.16-.34.41-.64.75-.89s.79-.37,1.36-.37c.46,0,.84.08,1.16.24.32.15.58.36.77.6s.34.54.42.86c.08.32.13.66.12,1.02l-.03,4.33h-1.71s.02-3.48.02-3.48c0-.19,0-.4-.02-.64-.02-.23-.07-.45-.15-.66-.08-.2-.2-.38-.38-.52-.17-.14-.4-.21-.7-.21s-.53.04-.72.14c-.2.09-.36.22-.49.38-.13.16-.22.35-.28.55-.06.21-.09.43-.09.66l-.02,3.74h-1.71s.04-6.86.04-6.86Z"/>
        <path class="cls-2" d="M227.88,139.9v-1.46s1.42,0,1.42,0v-1.98s1.73,0,1.73,0v1.98s1.87.01,1.87.01v1.46s-1.89-.01-1.89-.01l-.02,3c0,.34.06.61.19.81.13.2.38.3.76.3.15,0,.32-.01.5-.05s.32-.09.43-.16v1.44c-.19.08-.41.14-.67.17-.26.03-.49.05-.69.05-.46,0-.83-.05-1.12-.16s-.52-.26-.68-.46-.28-.46-.34-.77-.09-.66-.09-1.06l.02-3.14h-1.41Z"/>
        <path class="cls-2" d="M237.89,140.4c-.33-.47-.78-.7-1.34-.71-.23,0-.45.05-.67.17-.22.11-.33.3-.33.56,0,.21.09.36.27.46.18.1.41.18.68.25.27.07.57.14.89.21.32.07.61.18.89.33.27.15.5.35.68.61.18.26.27.61.27,1.06,0,.41-.09.75-.27,1.03-.18.28-.41.5-.69.67-.28.17-.6.29-.95.37-.35.07-.71.11-1.06.11-.53,0-1.02-.08-1.47-.24-.45-.15-.85-.43-1.2-.84l1.15-1.06c.22.25.45.45.7.61s.56.24.92.24c.12,0,.25-.01.39-.04.13-.03.26-.08.37-.14.11-.07.21-.15.28-.25.07-.1.11-.22.11-.35,0-.24-.09-.42-.27-.53-.18-.11-.41-.21-.68-.28-.28-.07-.57-.14-.89-.21-.32-.06-.61-.17-.89-.3-.28-.14-.5-.33-.68-.58-.18-.25-.27-.59-.26-1.03,0-.38.08-.71.24-.99.16-.28.37-.51.62-.69s.55-.31.89-.39.67-.13,1.01-.12c.46,0,.91.08,1.36.24s.81.43,1.08.81l-1.15,1.02Z"/>
        <path class="cls-2" d="M240.55,144.37c0-.3.12-.57.34-.78.22-.22.49-.33.81-.32s.57.11.8.32c.23.21.34.47.34.77s-.11.57-.34.78c-.23.22-.49.33-.81.32-.15,0-.3-.03-.43-.09-.14-.06-.26-.14-.36-.23-.1-.09-.19-.21-.25-.34-.06-.13-.09-.28-.09-.43Z"/>
      </g>
    </g>
  </g>
</svg>